<svg width="360" height="76" viewBox="0 0 360 76" fill="none" xmlns="http://www.w3.org/2000/svg">
<path d="M126.863 60.2168H84.7233L110.16 21.6116H89.575V11.9084H127.903L102.674 50.5135H126.863V60.2168ZM148.356 24.2454C153.692 24.2454 158.267 26.0474 162.079 29.6515C165.891 33.1863 167.762 37.5527 167.762 42.7509C167.762 47.9491 165.891 52.3156 162.079 55.9196C158.267 59.4544 153.692 61.2564 148.356 61.2564C142.949 61.2564 138.375 59.4544 134.563 55.9196C130.82 52.3156 128.949 47.9491 128.949 42.7509C128.949 37.5527 130.82 33.1863 134.563 29.6515C138.375 26.0474 142.949 24.2454 148.356 24.2454ZM139.276 42.7509C139.276 45.3153 140.177 47.5332 141.91 49.266C143.643 50.9987 145.791 51.8997 148.356 51.8997C150.92 51.8997 153.069 50.9987 154.801 49.266C156.534 47.4639 157.435 45.3153 157.435 42.7509C157.435 40.1865 156.534 38.0379 154.801 36.3052C153.069 34.5031 150.92 33.6021 148.356 33.6021C145.791 33.6021 143.643 34.5031 141.91 36.3052C140.177 38.0379 139.276 40.1865 139.276 42.7509ZM183.51 60.2168H173.183V25.285H183.51V29.6515C184.965 26.6019 188.916 24.5226 193.698 24.5226C202.223 24.5226 207.075 29.9287 207.075 39.0082V60.2168H196.748V40.2558C196.748 36.1665 194.461 33.6714 190.371 33.6714C186.421 33.6714 183.51 36.5131 183.51 40.6023V60.2168ZM212.896 16.4828C212.896 13.1559 215.53 10.5915 218.787 10.5915C222.045 10.5915 224.678 13.1559 224.678 16.4828C224.678 19.7403 222.045 22.3047 218.787 22.3047C215.53 22.3047 212.896 19.7403 212.896 16.4828ZM223.985 60.2168H213.658V25.285H223.985V60.2168ZM244.849 60.2168H234.868V34.6417H229.116V25.285H234.868V24.3147C234.868 19.2551 236.255 15.6511 238.958 13.5025C240.968 11.7697 244.225 10.938 248.592 10.938C249.978 10.938 251.364 11.0767 252.75 11.2846V19.8789C252.126 19.671 251.087 19.5324 249.631 19.5324C246.304 19.5324 244.849 20.7106 244.849 23.6909V25.285H251.849V34.6417H244.849V60.2168ZM261.92 73.6628L267.534 60.8406L252.91 25.285H263.653L272.94 48.5729L282.366 25.285H293.109L272.524 73.6628H261.92ZM291.765 59.1772C289.547 56.9593 289.547 53.4938 291.765 51.2759C294.052 49.058 297.517 49.058 299.735 51.2759C302.022 53.4938 302.022 56.9593 299.735 59.1772C297.517 61.3951 294.052 61.3951 291.765 59.1772ZM321.106 24.6612C326.373 24.6612 330.462 26.8098 331.502 29.8594V25.285H341.829V60.2168H331.502V55.6424C330.462 58.692 326.373 60.8406 321.106 60.8406C316.185 60.8406 312.026 59.1079 308.699 55.6424C305.442 52.1076 303.778 47.8105 303.778 42.7509C303.778 37.6913 305.442 33.3942 308.699 29.9287C312.026 26.394 316.185 24.6612 321.106 24.6612ZM322.977 51.4839C325.542 51.4839 327.69 50.6521 329.423 48.9887C331.225 47.256 332.126 45.1767 332.126 42.7509C332.126 40.3251 331.225 38.2458 329.423 36.5824C327.69 34.8497 325.542 34.018 322.977 34.018C320.482 34.018 318.403 34.8497 316.67 36.5824C314.937 38.2458 314.106 40.3251 314.106 42.7509C314.106 45.1767 314.937 47.256 316.67 48.9887C318.403 50.6521 320.482 51.4839 322.977 51.4839ZM347.927 16.4828C347.927 13.1559 350.56 10.5915 353.818 10.5915C357.076 10.5915 359.709 13.1559 359.709 16.4828C359.709 19.7403 357.076 22.3047 353.818 22.3047C350.56 22.3047 347.927 19.7403 347.927 16.4828ZM359.016 60.2168H348.689V25.285H359.016V60.2168Z" fill="#242321"/>
<path d="M8.17067 24.7881C8.29593 24.7915 8.42115 24.7957 8.54638 24.8007C10.2617 24.8866 11.9077 25.5029 13.2555 26.5641C14.123 27.2495 15.0534 28.4289 15.798 29.2642L20.2081 34.243L33.4722 49.1996C34.2731 50.0971 35.0635 51.0039 35.843 51.9198C36.5256 52.7323 37.21 53.615 37.969 54.4225C40.5089 57.0637 43.7458 60.2448 47.5648 60.6701C48.5405 60.7788 49.7322 60.2625 50.4225 59.6151C50.4031 59.913 42.0454 69.1056 41.2817 69.9453C39.7831 71.5082 38.4105 72.0087 36.2551 72.1061C34.1122 72.2091 31.5828 71.5442 30.0086 70.0088C28.421 68.4601 26.921 66.672 25.4312 65.0153C21.8522 60.9744 18.3042 56.9062 14.7877 52.8113C14.3314 52.2822 13.8633 51.7115 13.4059 51.1899L5.46882 42.2316L3.04394 39.5019C2.52486 38.9163 1.88363 38.2592 1.46205 37.6168C-2.26015 31.9466 1.54088 25.0627 8.17067 24.7881ZM37.9474 68.0443C38.8969 67.5347 39.7123 66.4991 40.4288 65.6915C41.2367 64.7809 42.0737 63.87 42.8752 62.9551C41.1079 61.9552 39.0626 60.3581 37.5686 59.0017C35.9868 57.5656 34.5417 55.7955 33.1329 54.1709L28.9224 49.3803L17.3902 36.3836C15.9176 34.6845 14.4264 33.0017 12.9166 31.3355C11.4051 29.6736 10.5572 28.3214 8.03175 28.353C6.65799 28.4725 5.58133 28.9261 4.67734 30.0104C3.87503 30.9714 3.49479 32.2141 3.62253 33.458C3.80985 35.3457 5.01261 36.3599 6.19442 37.6754L8.83938 40.6716L17.9176 51.007L27.6796 62.2284C28.7578 63.4718 29.85 64.7033 30.9558 65.9224C31.3978 66.4006 31.8484 66.9311 32.3451 67.3497C33.9279 68.6842 36.0962 68.9133 37.9474 68.0443Z" fill="#242321"/>
<path d="M37.9474 68.0443C38.8969 67.5347 39.7123 66.4991 40.4288 65.6915C41.2367 64.7809 42.0737 63.87 42.8752 62.9551C41.1079 61.9552 39.0626 60.3581 37.5686 59.0017C35.9868 57.5656 34.5417 55.7955 33.1329 54.1709L28.9224 49.3803L17.3902 36.3836C15.9176 34.6845 14.4264 33.0017 12.9166 31.3355C11.4051 29.6736 10.5572 28.3214 8.03175 28.353C6.65799 28.4725 5.58133 28.9261 4.67734 30.0104C3.87503 30.9714 3.49479 32.2141 3.62253 33.458C3.80985 35.3457 5.01261 36.3599 6.19442 37.6754L8.83938 40.6716L17.9176 51.007L27.6796 62.2284C28.7578 63.4718 29.85 64.7033 30.9558 65.9224C31.3978 66.4006 31.8484 66.9311 32.3451 67.3497C33.9279 68.6842 36.0962 68.9133 37.9474 68.0443Z" fill="#242321"/>
<path d="M33.628 0.84082H37.5057C38.0131 1.01506 38.6142 1.0387 39.1439 1.16534C40.3855 1.46225 41.6058 1.96465 42.7302 2.55938C46.1552 4.37096 48.7892 7.6641 49.9154 11.3509C50.9502 14.7379 50.7243 18.1767 49.0246 21.316C47.195 24.6948 44.5025 27.486 41.7177 30.0948C40.4039 31.3214 39.0621 32.5178 37.6934 33.6831C37.0759 34.2049 35.8294 35.7477 35.0492 35.1108C34.187 34.4069 33.2688 33.5772 32.4297 32.8234C28.1656 29.0018 22.2861 23.9762 20.8499 18.2387C19.0535 11.0628 24.4921 2.91052 31.6284 1.25679C32.2973 1.1018 32.9663 1.01059 33.5877 0.851488L33.628 0.84082Z" fill="#242321"/>
<path d="M37.082 49.9864C37.4318 49.5209 37.6676 49.3024 38.0344 48.8849L40.2496 46.3828L47.9357 37.7083L53.5521 31.3795L55.9694 28.6414C56.5465 27.993 57.0747 27.3273 57.7456 26.7634C58.7911 25.8718 59.9364 25.3152 61.269 24.9995C65.4388 24.0113 69.7906 26.6556 70.9349 30.7494C71.0881 31.2971 71.1115 31.8181 71.2436 32.3391L71.2531 32.3756V33.625C71.1657 33.9403 71.1189 34.3823 71.0552 34.719C70.6013 37.1062 69.0305 38.5565 67.4734 40.3082L63.4569 44.8446L58.6962 50.2077C58.2622 50.6997 57.8302 51.2073 57.4012 51.7025C55.1219 54.3309 51.2289 57.8692 47.5066 57.7083C47.8872 57.2067 48.637 56.3985 49.07 55.9001L52.5626 51.9132L61.9958 41.1655L65.1248 37.6014C66.4294 36.1079 67.7298 35.0208 67.6643 32.8667C67.6317 31.6047 67.0868 30.41 66.1543 29.5562C65.2731 28.729 64.0928 28.2941 62.8837 28.3509C60.4161 28.4492 59.3445 30.2439 57.8317 31.8739C57.6893 32.0272 57.5562 32.1911 57.4181 32.3485L54.1185 36.0555L45.3873 45.8763C43.4217 48.131 41.4377 50.3697 39.436 52.5923C38.9304 51.9513 38.336 51.3901 37.7968 50.7784C37.5607 50.5106 37.3253 50.248 37.082 49.9864Z" fill="#242321"/>
<path d="M47.5066 57.7083C47.8872 57.2067 48.637 56.3985 49.07 55.9001L52.5626 51.9132L61.9958 41.1655L65.1248 37.6014C66.4294 36.1079 67.7298 35.0208 67.6643 32.8667C67.6317 31.6047 67.0868 30.41 66.1543 29.5562C65.2731 28.729 64.0928 28.2941 62.8837 28.3509C60.4161 28.4492 59.3445 30.2439 57.8317 31.8739C57.6893 32.0272 57.5562 32.1911 57.4181 32.3485L54.1185 36.0555L45.3873 45.8763C43.4217 48.131 41.4377 50.3697 39.436 52.5923C40.7188 54.1494 44.1288 57.3525 47.5066 57.7083Z" fill="#242321"/>
</svg>
